<?xml version="1.0" encoding="utf-8"?>
<!-- Generator: Adobe Illustrator 24.1.0, SVG Export Plug-In . SVG Version: 6.00 Build 0)  -->
<svg version="1.1" id="Ebene_1" xmlns="http://www.w3.org/2000/svg" xmlns:xlink="http://www.w3.org/1999/xlink" x="0px" y="0px"
	 viewBox="0 0 283.46 283.46" style="enable-background:new 0 0 283.46 283.46;" xml:space="preserve">
<style type="text/css">
	.st0{fill:none;stroke:#878787;stroke-width:12.4876;stroke-linecap:round;stroke-miterlimit:10;}
	.st1{fill:#7892C2;}
	.st2{fill:none;stroke:#7892C2;stroke-width:3.6631;stroke-linecap:round;stroke-linejoin:round;stroke-miterlimit:10;}
	.st3{fill:none;stroke:#7892C2;stroke-width:5.85;stroke-linecap:round;stroke-miterlimit:10;}
	.st4{fill:none;stroke:#7892C2;stroke-width:3.2676;stroke-linecap:round;stroke-linejoin:round;stroke-miterlimit:10;}
	.st5{fill:#FFFFFF;}
	.st6{fill:none;stroke:#7892C2;stroke-width:3.519;stroke-linecap:round;stroke-linejoin:round;stroke-miterlimit:10;}
	.st7{fill:none;stroke:#878787;stroke-width:6.2177;stroke-linecap:round;stroke-miterlimit:10;}
</style>
<path class="st0" d="M145.45,173"/>
<path class="st1" d="M165.6,148.73c0-2.06-1.63-5.27-3.66-5.27l-7.92-0.02l0.02-11.26c0-1.46-1.8-2.65-4.03-2.65
	c-2.23,0-4.03,1.18-4.04,2.64l-0.02,11.26l-7.99-0.02l0.02-11.26c0-1.46-1.72-2.65-3.86-2.65c-2.13,0-3.86,1.18-3.87,2.64
	l-0.02,11.26l-6.75-0.01c-2.03,0-3.67,3.2-3.67,5.26c0,0.72-3.22,26.42,22.46,26.48C167.97,175.16,165.6,149.6,165.6,148.73z"/>
<path class="st1" d="M231.69,174.97c-1.36,0-19.89,15.14-19.89,28.25c0,13.11,9.94,19.21,18.98,19.21s17.85-5.2,19.21-18.31
	C251.35,191.01,231.69,174.97,231.69,174.97z M234.99,216.21c7.44-2.71,9.81-13.45,9.81-13.45
	C246.16,215.02,234.99,216.21,234.99,216.21z"/>
<g>
	<line class="st2" x1="84.42" y1="36.65" x2="87.38" y2="53.72"/>
	<line class="st2" x1="101.72" y1="55.9" x2="110.11" y2="44.62"/>
	<line class="st2" x1="111.01" y1="67.74" x2="126.08" y2="65.13"/>
	<line class="st2" x1="107.5" y1="83.35" x2="118.69" y2="91.24"/>
	<line class="st2" x1="94.48" y1="91.81" x2="97" y2="106.37"/>
	<line class="st2" x1="79.2" y1="87.21" x2="71.98" y2="99.32"/>
	<line class="st2" x1="70.92" y1="75.19" x2="55.93" y2="78.3"/>
	<line class="st2" x1="74.51" y1="60.09" x2="63.4" y2="52.7"/>
	<path class="st1" d="M88.12,57.21c-8.12,1.4-13.57,9.13-12.16,17.25c1.4,8.12,9.13,13.57,17.25,12.16
		c8.12-1.4,13.57-9.13,12.16-17.25C103.97,61.26,96.25,55.81,88.12,57.21z M80.46,74.26c-2.52-9.88,6.81-12.49,6.81-12.49
		C80.59,65.26,80.46,74.26,80.46,74.26z"/>
</g>
<path class="st3" d="M142.96,171.61c0,0,1.42,41.67,1.01,48.6c-0.41,6.92-0.88,27.7-20.72,23.98c0,0-26.67-3.41-54.53-27.82"/>
<g>
	<line class="st4" x1="50.67" y1="185.36" x2="51.04" y2="217.43"/>
	<path class="st1" d="M50.62,184.52c0.2,0.43,13.51-16.54-0.66-38.43c0,0-5.72,13.19-2.55,33.59
		C47.4,179.68,50.01,183.23,50.62,184.52z"/>
	<path class="st1" d="M51.95,184.71c-0.48,0.03,9.2,18.66,36.32,14.2c0,0-10.52-10.66-30.62-15.37
		C57.64,183.54,53.36,184.63,51.95,184.71z"/>
	<path class="st1" d="M49.45,184.92c0.48,0.03-11.63,16.14-36.61,15.18c0,0,8.57-15.7,30.91-16.35
		C43.75,183.75,48.03,184.84,49.45,184.92z"/>
	<circle class="st1" cx="50.65" cy="185.58" r="4.57"/>
	<path class="st5" d="M43.53,188.36c0,0-10.15,8.57-23.16,10.31C20.37,198.67,31.79,194.86,43.53,188.36z"/>
</g>
<g>
	<path class="st1" d="M215.39,86.12c16.23,11.87,29.58-13.88,29.58-13.88C215.32,66.6,215.39,86.12,215.39,86.12z M216.58,85.01
		c0,0,7.78-9.73,25.04-11.36C241.62,73.65,229.01,75.85,216.58,85.01z"/>
	<line class="st6" x1="216.17" y1="86.26" x2="215.76" y2="108.48"/>
	<path class="st1" d="M186.15,73.32c0,0,13.35,25.74,29.58,13.88C215.72,87.2,215.8,67.68,186.15,73.32z M189.5,74.73
		c17.26,1.63,25.04,11.36,25.04,11.36C202.11,76.94,189.5,74.73,189.5,74.73z"/>
</g>
<path class="st3" d="M43.91,136.18c1.65-13.73,6.11-26.59,12.78-38"/>
<path class="st3" d="M203.42,225.95c-13.45,10.6-29.72,17.78-47.5,20.24"/>
<path class="st3" d="M231.7,105.69c6.11,12.86,9.53,27.25,9.53,42.43c0,4.32-0.28,8.57-0.81,12.74"/>
<path class="st7" d="M231.7,105.69"/>
<path class="st3" d="M126.08,50.65c6.57-1.37,11.65-1.54,18.63-1.54c16.49,0,32.04,4.03,45.71,11.16"/>
</svg>
